%TF.GenerationSoftware,KiCad,Pcbnew,(6.0.7-1)-1*%
%TF.CreationDate,2022-09-13T14:42:12-07:00*%
%TF.ProjectId,preamp_board,70726561-6d70-45f6-926f-6172642e6b69,rev?*%
%TF.SameCoordinates,Original*%
%TF.FileFunction,Soldermask,Top*%
%TF.FilePolarity,Negative*%
%FSLAX46Y46*%
G04 Gerber Fmt 4.6, Leading zero omitted, Abs format (unit mm)*
G04 Created by KiCad (PCBNEW (6.0.7-1)-1) date 2022-09-13 14:42:12*
%MOMM*%
%LPD*%
G01*
G04 APERTURE LIST*
G04 Aperture macros list*
%AMRoundRect*
0 Rectangle with rounded corners*
0 $1 Rounding radius*
0 $2 $3 $4 $5 $6 $7 $8 $9 X,Y pos of 4 corners*
0 Add a 4 corners polygon primitive as box body*
4,1,4,$2,$3,$4,$5,$6,$7,$8,$9,$2,$3,0*
0 Add four circle primitives for the rounded corners*
1,1,$1+$1,$2,$3*
1,1,$1+$1,$4,$5*
1,1,$1+$1,$6,$7*
1,1,$1+$1,$8,$9*
0 Add four rect primitives between the rounded corners*
20,1,$1+$1,$2,$3,$4,$5,0*
20,1,$1+$1,$4,$5,$6,$7,0*
20,1,$1+$1,$6,$7,$8,$9,0*
20,1,$1+$1,$8,$9,$2,$3,0*%
%AMFreePoly0*
4,1,6,1.000000,0.000000,0.500000,-0.750000,-0.500000,-0.750000,-0.500000,0.750000,0.500000,0.750000,1.000000,0.000000,1.000000,0.000000,$1*%
%AMFreePoly1*
4,1,6,0.500000,-0.750000,-0.650000,-0.750000,-0.150000,0.000000,-0.650000,0.750000,0.500000,0.750000,0.500000,-0.750000,0.500000,-0.750000,$1*%
G04 Aperture macros list end*
%ADD10C,3.000000*%
%ADD11RoundRect,0.250000X-0.350000X-0.450000X0.350000X-0.450000X0.350000X0.450000X-0.350000X0.450000X0*%
%ADD12C,5.600000*%
%ADD13C,1.600000*%
%ADD14R,2.000000X4.000000*%
%ADD15O,2.000000X3.300000*%
%ADD16O,3.500000X2.000000*%
%ADD17R,0.650000X1.560000*%
%ADD18R,1.600000X1.600000*%
%ADD19RoundRect,0.250000X0.350000X0.450000X-0.350000X0.450000X-0.350000X-0.450000X0.350000X-0.450000X0*%
%ADD20RoundRect,0.250000X0.475000X-0.337500X0.475000X0.337500X-0.475000X0.337500X-0.475000X-0.337500X0*%
%ADD21FreePoly0,270.000000*%
%ADD22FreePoly1,270.000000*%
%ADD23O,2.500000X1.600000*%
%ADD24O,7.000000X3.500000*%
%ADD25RoundRect,0.250000X-0.337500X-0.475000X0.337500X-0.475000X0.337500X0.475000X-0.337500X0.475000X0*%
%ADD26RoundRect,0.250000X-0.475000X0.337500X-0.475000X-0.337500X0.475000X-0.337500X0.475000X0.337500X0*%
%ADD27RoundRect,0.150000X0.150000X-0.825000X0.150000X0.825000X-0.150000X0.825000X-0.150000X-0.825000X0*%
%ADD28R,1.000000X1.000000*%
%ADD29RoundRect,0.250000X0.325000X0.450000X-0.325000X0.450000X-0.325000X-0.450000X0.325000X-0.450000X0*%
%ADD30RoundRect,0.250000X-0.450000X0.350000X-0.450000X-0.350000X0.450000X-0.350000X0.450000X0.350000X0*%
%ADD31R,2.000000X1.500000*%
%ADD32R,2.000000X3.800000*%
%ADD33RoundRect,0.250000X0.450000X-0.350000X0.450000X0.350000X-0.450000X0.350000X-0.450000X-0.350000X0*%
%ADD34FreePoly1,0.000000*%
%ADD35FreePoly0,0.000000*%
%ADD36FreePoly0,90.000000*%
%ADD37FreePoly1,90.000000*%
%ADD38R,1.560000X0.650000*%
%ADD39R,1.800000X1.800000*%
%ADD40C,1.800000*%
%ADD41RoundRect,0.100000X-0.712500X-0.100000X0.712500X-0.100000X0.712500X0.100000X-0.712500X0.100000X0*%
%ADD42C,2.000000*%
G04 APERTURE END LIST*
D10*
%TO.C,J5*%
X96720000Y-82000000D03*
X107700000Y-87700000D03*
X107700000Y-76300000D03*
X101350000Y-76300000D03*
X101350000Y-87700000D03*
X114050000Y-87700000D03*
X114050000Y-76300000D03*
%TD*%
D11*
%TO.C,R26*%
X61050000Y-71950000D03*
X63050000Y-71950000D03*
%TD*%
D12*
%TO.C,H3*%
X22000000Y-96000000D03*
%TD*%
D13*
%TO.C,J4*%
X115000000Y-24000000D03*
D14*
X106000000Y-24000000D03*
D15*
X112000000Y-24000000D03*
D16*
X113000000Y-28500000D03*
X113000000Y-19500000D03*
%TD*%
D11*
%TO.C,R21*%
X17000000Y-19265000D03*
X19000000Y-19265000D03*
%TD*%
%TO.C,R10*%
X82000000Y-77000000D03*
X84000000Y-77000000D03*
%TD*%
%TO.C,R14*%
X70000000Y-59000000D03*
X72000000Y-59000000D03*
%TD*%
D17*
%TO.C,U3*%
X82100000Y-90700000D03*
X83050000Y-90700000D03*
X84000000Y-90700000D03*
X84000000Y-88000000D03*
X83050000Y-88000000D03*
X82100000Y-88000000D03*
%TD*%
D18*
%TO.C,SW2*%
X49000000Y-20000000D03*
D13*
X49000000Y-17500000D03*
X49000000Y-15000000D03*
X52200000Y-20000000D03*
X52200000Y-17500000D03*
X52200000Y-15000000D03*
%TD*%
D18*
%TO.C,C1*%
X107000000Y-14000000D03*
D13*
X109500000Y-14000000D03*
%TD*%
D19*
%TO.C,R25*%
X57050000Y-80950000D03*
X55050000Y-80950000D03*
%TD*%
D20*
%TO.C,C4*%
X87000000Y-58075000D03*
X87000000Y-56000000D03*
%TD*%
D21*
%TO.C,JP4*%
X25000000Y-64275000D03*
D22*
X25000000Y-65725000D03*
%TD*%
D11*
%TO.C,R18*%
X17000000Y-5000000D03*
X19000000Y-5000000D03*
%TD*%
D23*
%TO.C,J2*%
X15000000Y-37000000D03*
X15000000Y-39540000D03*
D24*
X9920000Y-42080000D03*
X9920000Y-31920000D03*
%TD*%
D11*
%TO.C,R3*%
X90050000Y-6000000D03*
X92050000Y-6000000D03*
%TD*%
D25*
%TO.C,C8*%
X33962500Y-20000000D03*
X36037500Y-20000000D03*
%TD*%
D10*
%TO.C,J6*%
X96720000Y-54000000D03*
X107700000Y-59700000D03*
X107700000Y-48300000D03*
X101350000Y-59700000D03*
X101350000Y-48300000D03*
X114050000Y-48300000D03*
X114050000Y-59700000D03*
%TD*%
D18*
%TO.C,SW1*%
X24407500Y-76600000D03*
D13*
X21907500Y-76600000D03*
X19407500Y-76600000D03*
X24407500Y-73400000D03*
X21907500Y-73400000D03*
X19407500Y-73400000D03*
%TD*%
D25*
%TO.C,C10*%
X16962500Y-11000000D03*
X19037500Y-11000000D03*
%TD*%
D26*
%TO.C,C11*%
X40000000Y-5962500D03*
X40000000Y-8037500D03*
%TD*%
D25*
%TO.C,C7*%
X16962500Y-3000000D03*
X19037500Y-3000000D03*
%TD*%
D11*
%TO.C,R16*%
X78000000Y-64000000D03*
X80000000Y-64000000D03*
%TD*%
D27*
%TO.C,U5*%
X76095000Y-59475000D03*
X77365000Y-59475000D03*
X78635000Y-59475000D03*
X79905000Y-59475000D03*
X79905000Y-54525000D03*
X78635000Y-54525000D03*
X77365000Y-54525000D03*
X76095000Y-54525000D03*
%TD*%
D28*
%TO.C,D2*%
X61800000Y-51650000D03*
X64300000Y-51650000D03*
%TD*%
D29*
%TO.C,D1*%
X98000000Y-6000000D03*
X95950000Y-6000000D03*
%TD*%
D12*
%TO.C,H4*%
X116000000Y-4000000D03*
%TD*%
D17*
%TO.C,U2*%
X82100000Y-83700000D03*
X83050000Y-83700000D03*
X84000000Y-83700000D03*
X84000000Y-81000000D03*
X83050000Y-81000000D03*
X82100000Y-81000000D03*
%TD*%
D30*
%TO.C,R11*%
X58050000Y-49650000D03*
X58050000Y-51650000D03*
%TD*%
D25*
%TO.C,C5*%
X35962500Y-29000000D03*
X38037500Y-29000000D03*
%TD*%
D23*
%TO.C,J3*%
X15000000Y-60000000D03*
D24*
X9920000Y-65080000D03*
D23*
X15000000Y-62540000D03*
D24*
X9920000Y-54920000D03*
%TD*%
D30*
%TO.C,R27*%
X63050000Y-74950000D03*
X63050000Y-76950000D03*
%TD*%
D31*
%TO.C,U1*%
X97150000Y-25300000D03*
X97150000Y-23000000D03*
D32*
X90850000Y-23000000D03*
D31*
X97150000Y-20700000D03*
%TD*%
D21*
%TO.C,JP6*%
X108000000Y-41500000D03*
D22*
X108000000Y-42950000D03*
%TD*%
D11*
%TO.C,R13*%
X74000000Y-50000000D03*
X76000000Y-50000000D03*
%TD*%
D33*
%TO.C,R12*%
X55050000Y-58650000D03*
X55050000Y-56650000D03*
%TD*%
D20*
%TO.C,C13*%
X31000000Y-7037500D03*
X31000000Y-4962500D03*
%TD*%
D12*
%TO.C,H1*%
X116000000Y-96000000D03*
%TD*%
D11*
%TO.C,R4*%
X87000000Y-63000000D03*
X89000000Y-63000000D03*
%TD*%
%TO.C,R22*%
X17000000Y-21265000D03*
X19000000Y-21265000D03*
%TD*%
D21*
%TO.C,JP2*%
X25000000Y-41275000D03*
D22*
X25000000Y-42725000D03*
%TD*%
D17*
%TO.C,U4*%
X60000000Y-56300000D03*
X59050000Y-56300000D03*
X58100000Y-56300000D03*
X58100000Y-59000000D03*
X59050000Y-59000000D03*
X60000000Y-59000000D03*
%TD*%
D34*
%TO.C,JP3*%
X29725000Y-96000000D03*
D35*
X28275000Y-96000000D03*
%TD*%
D17*
%TO.C,U9*%
X57100000Y-77650000D03*
X58050000Y-77650000D03*
X59000000Y-77650000D03*
X59000000Y-74950000D03*
X58050000Y-74950000D03*
X57100000Y-74950000D03*
%TD*%
D11*
%TO.C,R20*%
X17000000Y-13000000D03*
X19000000Y-13000000D03*
%TD*%
D25*
%TO.C,C9*%
X16962500Y-15000000D03*
X19037500Y-15000000D03*
%TD*%
D19*
%TO.C,R7*%
X89000000Y-88000000D03*
X87000000Y-88000000D03*
%TD*%
D18*
%TO.C,C2*%
X107000000Y-34000000D03*
D13*
X109500000Y-34000000D03*
%TD*%
D11*
%TO.C,R17*%
X17000000Y-9000000D03*
X19000000Y-9000000D03*
%TD*%
%TO.C,R2*%
X24000000Y-60000000D03*
X26000000Y-60000000D03*
%TD*%
%TO.C,R15*%
X78000000Y-50000000D03*
X80000000Y-50000000D03*
%TD*%
D25*
%TO.C,C6*%
X16962500Y-7000000D03*
X19037500Y-7000000D03*
%TD*%
D30*
%TO.C,R9*%
X79750000Y-88250000D03*
X79750000Y-90250000D03*
%TD*%
D36*
%TO.C,JP5*%
X107000000Y-96725000D03*
D37*
X107000000Y-95275000D03*
%TD*%
D12*
%TO.C,H2*%
X4000000Y-23000000D03*
%TD*%
D25*
%TO.C,C12*%
X33962500Y-14000000D03*
X36037500Y-14000000D03*
%TD*%
D38*
%TO.C,U6*%
X36350000Y-9950000D03*
X36350000Y-9000000D03*
X36350000Y-8050000D03*
X33650000Y-8050000D03*
X33650000Y-9000000D03*
X33650000Y-9950000D03*
%TD*%
D39*
%TO.C,D3*%
X63050000Y-81650000D03*
D40*
X60510000Y-81650000D03*
%TD*%
D25*
%TO.C,C14*%
X35962500Y-31500000D03*
X38037500Y-31500000D03*
%TD*%
D11*
%TO.C,R19*%
X17000000Y-17000000D03*
X19000000Y-17000000D03*
%TD*%
D26*
%TO.C,C3*%
X83000000Y-54962500D03*
X83000000Y-57037500D03*
%TD*%
D23*
%TO.C,J1*%
X15000000Y-91000000D03*
D24*
X9920000Y-96080000D03*
D23*
X15000000Y-93540000D03*
D24*
X9920000Y-85920000D03*
%TD*%
D41*
%TO.C,U8*%
X34887500Y-23025000D03*
X34887500Y-23675000D03*
X34887500Y-24325000D03*
X34887500Y-24975000D03*
X39112500Y-24975000D03*
X39112500Y-24325000D03*
X39112500Y-23675000D03*
X39112500Y-23025000D03*
%TD*%
D19*
%TO.C,R6*%
X89000000Y-77000000D03*
X87000000Y-77000000D03*
%TD*%
D11*
%TO.C,R23*%
X17000000Y-23265000D03*
X19000000Y-23265000D03*
%TD*%
D42*
%TO.C,U7*%
X7000000Y-16000000D03*
X7000000Y-13500000D03*
X7000000Y-11000000D03*
X7000000Y-8500000D03*
X7000000Y-6000000D03*
X12000000Y-6000000D03*
X12000000Y-8500000D03*
X12000000Y-11000000D03*
X12000000Y-13500000D03*
X12000000Y-16000000D03*
%TD*%
D11*
%TO.C,R24*%
X17000000Y-25265000D03*
X19000000Y-25265000D03*
%TD*%
D19*
%TO.C,R8*%
X84000000Y-95000000D03*
X82000000Y-95000000D03*
%TD*%
D11*
%TO.C,R1*%
X24000000Y-37000000D03*
X26000000Y-37000000D03*
%TD*%
%TO.C,R5*%
X87000000Y-52000000D03*
X89000000Y-52000000D03*
%TD*%
M02*
