%TF.GenerationSoftware,KiCad,Pcbnew,(6.0.7-1)-1*%
%TF.CreationDate,2022-09-13T14:42:12-07:00*%
%TF.ProjectId,preamp_board,70726561-6d70-45f6-926f-6172642e6b69,rev?*%
%TF.SameCoordinates,Original*%
%TF.FileFunction,Soldermask,Bot*%
%TF.FilePolarity,Negative*%
%FSLAX46Y46*%
G04 Gerber Fmt 4.6, Leading zero omitted, Abs format (unit mm)*
G04 Created by KiCad (PCBNEW (6.0.7-1)-1) date 2022-09-13 14:42:12*
%MOMM*%
%LPD*%
G01*
G04 APERTURE LIST*
%ADD10C,3.000000*%
%ADD11C,5.600000*%
%ADD12C,1.600000*%
%ADD13R,2.000000X4.000000*%
%ADD14O,2.000000X3.300000*%
%ADD15O,3.500000X2.000000*%
%ADD16R,1.600000X1.600000*%
%ADD17O,2.500000X1.600000*%
%ADD18O,7.000000X3.500000*%
%ADD19R,1.800000X1.800000*%
%ADD20C,1.800000*%
%ADD21C,2.000000*%
G04 APERTURE END LIST*
D10*
%TO.C,J5*%
X96720000Y-82000000D03*
X107700000Y-87700000D03*
X107700000Y-76300000D03*
X101350000Y-76300000D03*
X101350000Y-87700000D03*
X114050000Y-87700000D03*
X114050000Y-76300000D03*
%TD*%
D11*
%TO.C,H3*%
X22000000Y-96000000D03*
%TD*%
D12*
%TO.C,J4*%
X115000000Y-24000000D03*
D13*
X106000000Y-24000000D03*
D14*
X112000000Y-24000000D03*
D15*
X113000000Y-28500000D03*
X113000000Y-19500000D03*
%TD*%
D16*
%TO.C,SW2*%
X49000000Y-20000000D03*
D12*
X49000000Y-17500000D03*
X49000000Y-15000000D03*
X52200000Y-20000000D03*
X52200000Y-17500000D03*
X52200000Y-15000000D03*
%TD*%
D16*
%TO.C,C1*%
X107000000Y-14000000D03*
D12*
X109500000Y-14000000D03*
%TD*%
D17*
%TO.C,J2*%
X15000000Y-37000000D03*
X15000000Y-39540000D03*
D18*
X9920000Y-42080000D03*
X9920000Y-31920000D03*
%TD*%
D10*
%TO.C,J6*%
X96720000Y-54000000D03*
X107700000Y-59700000D03*
X107700000Y-48300000D03*
X101350000Y-59700000D03*
X101350000Y-48300000D03*
X114050000Y-48300000D03*
X114050000Y-59700000D03*
%TD*%
D16*
%TO.C,SW1*%
X24407500Y-76600000D03*
D12*
X21907500Y-76600000D03*
X19407500Y-76600000D03*
X24407500Y-73400000D03*
X21907500Y-73400000D03*
X19407500Y-73400000D03*
%TD*%
D11*
%TO.C,H4*%
X116000000Y-4000000D03*
%TD*%
D17*
%TO.C,J3*%
X15000000Y-60000000D03*
D18*
X9920000Y-65080000D03*
D17*
X15000000Y-62540000D03*
D18*
X9920000Y-54920000D03*
%TD*%
D11*
%TO.C,H1*%
X116000000Y-96000000D03*
%TD*%
D16*
%TO.C,C2*%
X107000000Y-34000000D03*
D12*
X109500000Y-34000000D03*
%TD*%
D11*
%TO.C,H2*%
X4000000Y-23000000D03*
%TD*%
D19*
%TO.C,D3*%
X63050000Y-81650000D03*
D20*
X60510000Y-81650000D03*
%TD*%
D17*
%TO.C,J1*%
X15000000Y-91000000D03*
D18*
X9920000Y-96080000D03*
D17*
X15000000Y-93540000D03*
D18*
X9920000Y-85920000D03*
%TD*%
D21*
%TO.C,U7*%
X7000000Y-16000000D03*
X7000000Y-13500000D03*
X7000000Y-11000000D03*
X7000000Y-8500000D03*
X7000000Y-6000000D03*
X12000000Y-6000000D03*
X12000000Y-8500000D03*
X12000000Y-11000000D03*
X12000000Y-13500000D03*
X12000000Y-16000000D03*
%TD*%
M02*
