M48
; DRILL file {KiCad (6.0.7-1)-1} date Tuesday, September 13, 2022 at 02:42:13 PM
; FORMAT={-:-/ absolute / inch / decimal}
; #@! TF.CreationDate,2022-09-13T14:42:13-07:00
; #@! TF.GenerationSoftware,Kicad,Pcbnew,(6.0.7-1)-1
; #@! TF.FileFunction,Plated,1,4,PTH
FMAT,2
INCH
; #@! TA.AperFunction,Plated,PTH,ViaDrill
T1C0.0157
; #@! TA.AperFunction,Plated,PTH,ComponentDrill
T2C0.0315
; #@! TA.AperFunction,Plated,PTH,ComponentDrill
T3C0.0350
; #@! TA.AperFunction,Plated,PTH,ComponentDrill
T4C0.0354
; #@! TA.AperFunction,Plated,PTH,ComponentDrill
T5C0.0394
; #@! TA.AperFunction,Plated,PTH,ComponentDrill
T6C0.0591
; #@! TA.AperFunction,Plated,PTH,ComponentDrill
T7C0.0791
; #@! TA.AperFunction,Plated,PTH,ComponentDrill
T8C0.1260
%
G90
G05
T1
X0.1969Y-0.1969
X0.1969Y-0.3937
X0.1969Y-0.5906
X0.1969Y-1.1811
X0.1969Y-1.378
X0.1969Y-1.5748
X0.1969Y-1.7717
X0.1969Y-1.9685
X0.1969Y-2.1654
X0.1969Y-2.3622
X0.1969Y-2.7559
X0.1969Y-2.9528
X0.1969Y-3.6713
X0.1969Y-3.8681
X0.3937Y-0.1969
X0.3937Y-1.378
X0.3937Y-1.7717
X0.3937Y-1.9685
X0.3937Y-2.3622
X0.3937Y-2.7559
X0.3937Y-2.9528
X0.3937Y-3.6713
X0.5906Y-1.1811
X0.5906Y-1.378
X0.5906Y-1.7717
X0.5906Y-1.9685
X0.5906Y-2.1654
X0.5906Y-2.7559
X0.5906Y-2.9528
X0.5906Y-3.8681
X0.7874Y-1.1811
X0.7874Y-1.9685
X0.7874Y-2.1654
X0.7874Y-2.7559
X0.7874Y-2.9528
X0.7874Y-3.3465
X0.8071Y-1.5354
X0.9843Y-0.1969
X0.9843Y-0.3937
X0.9843Y-1.1811
X0.9843Y-1.378
X0.9843Y-1.5748
X0.9843Y-1.7717
X0.9843Y-1.9685
X0.9843Y-2.1654
X0.9843Y-3.3465
X1.122Y-0.1476
X1.122Y-0.9055
X1.1811Y-0.3937
X1.1811Y-1.1811
X1.1811Y-1.378
X1.1811Y-1.5748
X1.1811Y-1.7717
X1.1811Y-1.9685
X1.1811Y-2.1654
X1.1811Y-2.3622
X1.1811Y-2.7559
X1.1811Y-2.9528
X1.1811Y-3.3465
X1.2697Y-1.0039
X1.2795Y-0.4232
X1.2795Y-0.5217
X1.3386Y-1.1909
X1.3386Y-1.3091
X1.378Y-0.1969
X1.378Y-0.5906
X1.378Y-1.378
X1.378Y-1.5748
X1.378Y-1.7717
X1.378Y-1.9685
X1.378Y-2.1654
X1.378Y-2.3622
X1.378Y-2.7559
X1.378Y-2.9528
X1.378Y-3.6713
X1.4665Y-0.4331
X1.4764Y-0.6201
X1.4764Y-1.3189
X1.4862Y-0.187
X1.5059Y-0.7677
X1.5748Y-0.3937
X1.5748Y-0.5906
X1.5748Y-0.7874
X1.5748Y-1.378
X1.5748Y-1.5748
X1.5748Y-1.7717
X1.5748Y-1.9685
X1.5748Y-2.1654
X1.5748Y-2.3622
X1.5748Y-2.7559
X1.5748Y-2.9528
X1.5748Y-3.6713
X1.624Y-1.0236
X1.6535Y-0.9252
X1.7717Y-0.3937
X1.7717Y-0.5906
X1.7717Y-1.1811
X1.7717Y-1.378
X1.7717Y-1.5748
X1.7717Y-1.7717
X1.7717Y-1.9685
X1.7717Y-2.1654
X1.7717Y-2.3622
X1.7717Y-2.7559
X1.7717Y-2.9528
X1.7717Y-3.6713
X2.1654Y-0.1969
X2.1654Y-0.3937
X2.1654Y-0.5906
X2.1654Y-0.9843
X2.1654Y-1.378
X2.1654Y-1.7717
X2.1654Y-1.9685
X2.1654Y-2.1654
X2.1654Y-2.3622
X2.1654Y-2.7559
X2.1654Y-3.3465
X2.1654Y-3.6713
X2.2638Y-2.8346
X2.2835Y-1.5354
X2.2835Y-1.8799
X2.3622Y-0.1969
X2.3622Y-0.3937
X2.3622Y-0.5906
X2.3622Y-0.7874
X2.3622Y-0.9843
X2.3622Y-1.378
X2.3622Y-1.7717
X2.3622Y-1.9685
X2.3622Y-2.4016
X2.3622Y-2.7559
X2.3622Y-3.3465
X2.3622Y-3.6713
X2.372Y-2.126
X2.5591Y-0.1969
X2.5591Y-0.3937
X2.5591Y-0.5906
X2.5591Y-0.7874
X2.5591Y-0.9843
X2.5591Y-1.378
X2.5591Y-1.7717
X2.5591Y-1.9685
X2.5591Y-2.1654
X2.5591Y-2.3622
X2.5591Y-2.7559
X2.5591Y-2.9528
X2.5591Y-3.3465
X2.5591Y-3.6713
X2.9528Y-0.1969
X2.9528Y-0.3937
X2.9528Y-0.5906
X2.9528Y-0.7874
X2.9528Y-0.9843
X2.9528Y-1.378
X2.9528Y-2.1654
X2.9528Y-2.3622
X2.9528Y-2.8839
X2.9528Y-3.0807
X2.9528Y-3.6713
X3.0709Y-2.4311
X3.1299Y-3.3563
X3.1496Y-0.1969
X3.1496Y-0.3937
X3.1496Y-0.5906
X3.1496Y-0.7874
X3.1496Y-0.9843
X3.1496Y-1.378
X3.1496Y-1.7717
X3.1496Y-2.8839
X3.1496Y-3.0807
X3.1496Y-3.6713
X3.2382Y-3.1102
X3.2874Y-2.0669
X3.3071Y-3.6516
X3.3465Y-0.1969
X3.3465Y-0.3937
X3.3465Y-0.5906
X3.3465Y-0.7874
X3.3465Y-0.9843
X3.3465Y-1.378
X3.3465Y-1.5748
X3.3465Y-1.7717
X3.3465Y-2.1654
X3.3465Y-2.3622
X3.3465Y-2.8839
X3.3661Y-3.2972
X3.3661Y-3.5728
X3.4252Y-2.4016
X3.4941Y-3.3661
X3.5039Y-2.1457
X3.5433Y-0.3937
X3.5433Y-0.5906
X3.5433Y-0.7874
X3.5433Y-1.378
X3.5433Y-1.5748
X3.5433Y-1.7717
X3.5433Y-2.1654
X3.5433Y-2.3622
X3.5433Y-2.8839
X3.5433Y-3.0807
X3.5433Y-3.6713
X3.5925Y-1.9094
X3.7402Y-0.3937
X3.7402Y-0.5906
X3.7402Y-0.7874
X3.7402Y-0.9843
X3.7402Y-1.378
X3.7402Y-1.5748
X3.7402Y-1.9685
X3.7402Y-2.3622
X3.7402Y-3.0807
X3.7402Y-3.6713
X3.937Y-0.1969
X3.937Y-0.3937
X3.937Y-0.5906
X3.937Y-0.9843
X3.937Y-3.6713
X4.1339Y-0.1969
X4.1339Y-0.5906
X4.1339Y-0.7874
X4.1339Y-1.1811
X4.1339Y-1.378
X4.1339Y-1.5748
X4.1339Y-1.9685
X4.1339Y-2.1654
X4.1339Y-2.3622
X4.1339Y-3.0807
X4.1339Y-3.6713
X4.252Y-1.5551
X4.3307Y-0.1969
X4.3307Y-0.3937
X4.3307Y-1.5748
X4.3307Y-1.7717
X4.3307Y-1.9685
X4.3307Y-2.1654
X4.3307Y-2.3622
X4.3307Y-3.0807
X4.3307Y-3.6713
X4.3307Y-3.8681
X4.5276Y-0.3937
X4.5276Y-0.5906
X4.5276Y-1.1811
X4.5276Y-1.378
X4.5276Y-1.5748
X4.5276Y-1.7717
X4.5276Y-2.1654
X4.5276Y-2.8839
X4.5276Y-3.0807
T2
X0.7641Y-2.8898
X0.7641Y-3.0157
X0.8625Y-2.8898
X0.8625Y-3.0157
X0.9609Y-2.8898
X0.9609Y-3.0157
X1.9291Y-0.5906
X1.9291Y-0.689
X1.9291Y-0.7874
X2.0551Y-0.5906
X2.0551Y-0.689
X2.0551Y-0.7874
X4.2126Y-0.5512
X4.2126Y-1.3386
X4.311Y-0.5512
X4.311Y-1.3386
T3
X0.5906Y-1.4567
X0.5906Y-1.5567
X0.5906Y-2.3622
X0.5906Y-2.4622
X0.5906Y-3.5827
X0.5906Y-3.6827
T4
X2.3823Y-3.2146
X2.4823Y-3.2146
T5
X0.2756Y-0.2362
X0.2756Y-0.3346
X0.2756Y-0.4331
X0.2756Y-0.5315
X0.2756Y-0.6299
X0.4724Y-0.2362
X0.4724Y-0.3346
X0.4724Y-0.4331
X0.4724Y-0.5315
X0.4724Y-0.6299
T6
X3.9902Y-1.9016
X3.9902Y-2.3504
X3.9902Y-3.0039
X3.9902Y-3.4528
X4.2402Y-1.9016
X4.2402Y-2.3504
X4.2402Y-3.0039
X4.2402Y-3.4528
X4.4902Y-1.9016
X4.4902Y-2.3504
X4.4902Y-3.0039
X4.4902Y-3.4528
T7
X0.3906Y-1.2567
X0.3906Y-1.6567
X0.3906Y-2.1622
X0.3906Y-2.5622
X0.3906Y-3.3827
X0.3906Y-3.7827
T8
X0.1575Y-0.9055
X0.8661Y-3.7795
X4.5669Y-0.1575
X4.5669Y-3.7795
T5
G00X4.1732Y-0.9843
M15
G01X4.1732Y-0.9055
M16
G05
G00X4.4094Y-0.9705
M15
G01X4.4094Y-0.9193
M16
G05
G00X4.4193Y-0.7677
M15
G01X4.4783Y-0.7677
M16
G05
G00X4.4193Y-1.122
M15
G01X4.4783Y-1.122
M16
G05
T0
M30
