%TF.GenerationSoftware,KiCad,Pcbnew,(6.0.7-1)-1*%
%TF.CreationDate,2022-09-13T14:42:12-07:00*%
%TF.ProjectId,preamp_board,70726561-6d70-45f6-926f-6172642e6b69,rev?*%
%TF.SameCoordinates,Original*%
%TF.FileFunction,Paste,Top*%
%TF.FilePolarity,Positive*%
%FSLAX46Y46*%
G04 Gerber Fmt 4.6, Leading zero omitted, Abs format (unit mm)*
G04 Created by KiCad (PCBNEW (6.0.7-1)-1) date 2022-09-13 14:42:12*
%MOMM*%
%LPD*%
G01*
G04 APERTURE LIST*
G04 Aperture macros list*
%AMRoundRect*
0 Rectangle with rounded corners*
0 $1 Rounding radius*
0 $2 $3 $4 $5 $6 $7 $8 $9 X,Y pos of 4 corners*
0 Add a 4 corners polygon primitive as box body*
4,1,4,$2,$3,$4,$5,$6,$7,$8,$9,$2,$3,0*
0 Add four circle primitives for the rounded corners*
1,1,$1+$1,$2,$3*
1,1,$1+$1,$4,$5*
1,1,$1+$1,$6,$7*
1,1,$1+$1,$8,$9*
0 Add four rect primitives between the rounded corners*
20,1,$1+$1,$2,$3,$4,$5,0*
20,1,$1+$1,$4,$5,$6,$7,0*
20,1,$1+$1,$6,$7,$8,$9,0*
20,1,$1+$1,$8,$9,$2,$3,0*%
G04 Aperture macros list end*
%ADD10RoundRect,0.250000X-0.350000X-0.450000X0.350000X-0.450000X0.350000X0.450000X-0.350000X0.450000X0*%
%ADD11R,0.650000X1.560000*%
%ADD12RoundRect,0.250000X0.350000X0.450000X-0.350000X0.450000X-0.350000X-0.450000X0.350000X-0.450000X0*%
%ADD13RoundRect,0.250000X0.475000X-0.337500X0.475000X0.337500X-0.475000X0.337500X-0.475000X-0.337500X0*%
%ADD14RoundRect,0.250000X-0.337500X-0.475000X0.337500X-0.475000X0.337500X0.475000X-0.337500X0.475000X0*%
%ADD15RoundRect,0.250000X-0.475000X0.337500X-0.475000X-0.337500X0.475000X-0.337500X0.475000X0.337500X0*%
%ADD16RoundRect,0.150000X0.150000X-0.825000X0.150000X0.825000X-0.150000X0.825000X-0.150000X-0.825000X0*%
%ADD17R,1.000000X1.000000*%
%ADD18RoundRect,0.250000X0.325000X0.450000X-0.325000X0.450000X-0.325000X-0.450000X0.325000X-0.450000X0*%
%ADD19RoundRect,0.250000X-0.450000X0.350000X-0.450000X-0.350000X0.450000X-0.350000X0.450000X0.350000X0*%
%ADD20R,2.000000X1.500000*%
%ADD21R,2.000000X3.800000*%
%ADD22RoundRect,0.250000X0.450000X-0.350000X0.450000X0.350000X-0.450000X0.350000X-0.450000X-0.350000X0*%
%ADD23R,1.560000X0.650000*%
%ADD24RoundRect,0.100000X-0.712500X-0.100000X0.712500X-0.100000X0.712500X0.100000X-0.712500X0.100000X0*%
G04 APERTURE END LIST*
D10*
%TO.C,R26*%
X61050000Y-71950000D03*
X63050000Y-71950000D03*
%TD*%
%TO.C,R21*%
X17000000Y-19265000D03*
X19000000Y-19265000D03*
%TD*%
%TO.C,R10*%
X82000000Y-77000000D03*
X84000000Y-77000000D03*
%TD*%
%TO.C,R14*%
X70000000Y-59000000D03*
X72000000Y-59000000D03*
%TD*%
D11*
%TO.C,U3*%
X82100000Y-90700000D03*
X83050000Y-90700000D03*
X84000000Y-90700000D03*
X84000000Y-88000000D03*
X83050000Y-88000000D03*
X82100000Y-88000000D03*
%TD*%
D12*
%TO.C,R25*%
X57050000Y-80950000D03*
X55050000Y-80950000D03*
%TD*%
D13*
%TO.C,C4*%
X87000000Y-58075000D03*
X87000000Y-56000000D03*
%TD*%
D10*
%TO.C,R18*%
X17000000Y-5000000D03*
X19000000Y-5000000D03*
%TD*%
%TO.C,R3*%
X90050000Y-6000000D03*
X92050000Y-6000000D03*
%TD*%
D14*
%TO.C,C8*%
X33962500Y-20000000D03*
X36037500Y-20000000D03*
%TD*%
%TO.C,C10*%
X16962500Y-11000000D03*
X19037500Y-11000000D03*
%TD*%
D15*
%TO.C,C11*%
X40000000Y-5962500D03*
X40000000Y-8037500D03*
%TD*%
D14*
%TO.C,C7*%
X16962500Y-3000000D03*
X19037500Y-3000000D03*
%TD*%
D10*
%TO.C,R16*%
X78000000Y-64000000D03*
X80000000Y-64000000D03*
%TD*%
D16*
%TO.C,U5*%
X76095000Y-59475000D03*
X77365000Y-59475000D03*
X78635000Y-59475000D03*
X79905000Y-59475000D03*
X79905000Y-54525000D03*
X78635000Y-54525000D03*
X77365000Y-54525000D03*
X76095000Y-54525000D03*
%TD*%
D17*
%TO.C,D2*%
X61800000Y-51650000D03*
X64300000Y-51650000D03*
%TD*%
D18*
%TO.C,D1*%
X98000000Y-6000000D03*
X95950000Y-6000000D03*
%TD*%
D11*
%TO.C,U2*%
X82100000Y-83700000D03*
X83050000Y-83700000D03*
X84000000Y-83700000D03*
X84000000Y-81000000D03*
X83050000Y-81000000D03*
X82100000Y-81000000D03*
%TD*%
D19*
%TO.C,R11*%
X58050000Y-49650000D03*
X58050000Y-51650000D03*
%TD*%
D14*
%TO.C,C5*%
X35962500Y-29000000D03*
X38037500Y-29000000D03*
%TD*%
D19*
%TO.C,R27*%
X63050000Y-74950000D03*
X63050000Y-76950000D03*
%TD*%
D20*
%TO.C,U1*%
X97150000Y-25300000D03*
X97150000Y-23000000D03*
D21*
X90850000Y-23000000D03*
D20*
X97150000Y-20700000D03*
%TD*%
D10*
%TO.C,R13*%
X74000000Y-50000000D03*
X76000000Y-50000000D03*
%TD*%
D22*
%TO.C,R12*%
X55050000Y-58650000D03*
X55050000Y-56650000D03*
%TD*%
D13*
%TO.C,C13*%
X31000000Y-7037500D03*
X31000000Y-4962500D03*
%TD*%
D10*
%TO.C,R4*%
X87000000Y-63000000D03*
X89000000Y-63000000D03*
%TD*%
%TO.C,R22*%
X17000000Y-21265000D03*
X19000000Y-21265000D03*
%TD*%
D11*
%TO.C,U4*%
X60000000Y-56300000D03*
X59050000Y-56300000D03*
X58100000Y-56300000D03*
X58100000Y-59000000D03*
X59050000Y-59000000D03*
X60000000Y-59000000D03*
%TD*%
%TO.C,U9*%
X57100000Y-77650000D03*
X58050000Y-77650000D03*
X59000000Y-77650000D03*
X59000000Y-74950000D03*
X58050000Y-74950000D03*
X57100000Y-74950000D03*
%TD*%
D10*
%TO.C,R20*%
X17000000Y-13000000D03*
X19000000Y-13000000D03*
%TD*%
D14*
%TO.C,C9*%
X16962500Y-15000000D03*
X19037500Y-15000000D03*
%TD*%
D12*
%TO.C,R7*%
X89000000Y-88000000D03*
X87000000Y-88000000D03*
%TD*%
D10*
%TO.C,R17*%
X17000000Y-9000000D03*
X19000000Y-9000000D03*
%TD*%
%TO.C,R2*%
X24000000Y-60000000D03*
X26000000Y-60000000D03*
%TD*%
%TO.C,R15*%
X78000000Y-50000000D03*
X80000000Y-50000000D03*
%TD*%
D14*
%TO.C,C6*%
X16962500Y-7000000D03*
X19037500Y-7000000D03*
%TD*%
D19*
%TO.C,R9*%
X79750000Y-88250000D03*
X79750000Y-90250000D03*
%TD*%
D14*
%TO.C,C12*%
X33962500Y-14000000D03*
X36037500Y-14000000D03*
%TD*%
D23*
%TO.C,U6*%
X36350000Y-9950000D03*
X36350000Y-9000000D03*
X36350000Y-8050000D03*
X33650000Y-8050000D03*
X33650000Y-9000000D03*
X33650000Y-9950000D03*
%TD*%
D14*
%TO.C,C14*%
X35962500Y-31500000D03*
X38037500Y-31500000D03*
%TD*%
D10*
%TO.C,R19*%
X17000000Y-17000000D03*
X19000000Y-17000000D03*
%TD*%
D15*
%TO.C,C3*%
X83000000Y-54962500D03*
X83000000Y-57037500D03*
%TD*%
D24*
%TO.C,U8*%
X34887500Y-23025000D03*
X34887500Y-23675000D03*
X34887500Y-24325000D03*
X34887500Y-24975000D03*
X39112500Y-24975000D03*
X39112500Y-24325000D03*
X39112500Y-23675000D03*
X39112500Y-23025000D03*
%TD*%
D12*
%TO.C,R6*%
X89000000Y-77000000D03*
X87000000Y-77000000D03*
%TD*%
D10*
%TO.C,R23*%
X17000000Y-23265000D03*
X19000000Y-23265000D03*
%TD*%
%TO.C,R24*%
X17000000Y-25265000D03*
X19000000Y-25265000D03*
%TD*%
D12*
%TO.C,R8*%
X84000000Y-95000000D03*
X82000000Y-95000000D03*
%TD*%
D10*
%TO.C,R1*%
X24000000Y-37000000D03*
X26000000Y-37000000D03*
%TD*%
%TO.C,R5*%
X87000000Y-52000000D03*
X89000000Y-52000000D03*
%TD*%
M02*
